<svg id="Calque_1" data-name="Calque 1" xmlns="http://www.w3.org/2000/svg" viewBox="0 0 111.72 111.48"><defs><style>.cls-1{fill:#c1c1c1;}.cls-2{fill:#ff2a00;}.cls-3,.cls-5{fill:#020202;}.cls-3{opacity:0.05;}.cls-4{fill:#f6d365;}.cls-5{opacity:0.1;}</style></defs><title>hackbeer</title><path class="cls-1" d="M59,1.64l1.82,2a3.88,3.88,0,0,0,5,.68l2.3-1.47a3.88,3.88,0,0,1,5.56,1.56l1.2,2.45a3.88,3.88,0,0,0,4.6,2l2.61-.79a3.87,3.87,0,0,1,4.93,3l.5,2.68a3.88,3.88,0,0,0,3.89,3.16l2.73-.05a3.87,3.87,0,0,1,3.94,4.22l-.24,2.71a3.87,3.87,0,0,0,2.89,4.1l2.64.68A3.88,3.88,0,0,1,106,33.73l-1,2.55A3.87,3.87,0,0,0,106.74,41l2.36,1.37A3.86,3.86,0,0,1,110.27,48l-1.62,2.2a3.87,3.87,0,0,0,.35,5l1.9,2a3.88,3.88,0,0,1-.39,5.76l-2.15,1.67a3.88,3.88,0,0,0-1,4.91l1.31,2.4a3.88,3.88,0,0,1-1.93,5.44l-2.53,1a3.9,3.9,0,0,0-2.31,4.46l.62,2.65a3.88,3.88,0,0,1-3.33,4.72l-2.71.32A3.87,3.87,0,0,0,93,94.2l-.13,2.73a3.87,3.87,0,0,1-4.47,3.64l-2.7-.43a3.87,3.87,0,0,0-4.28,2.61l-.86,2.59a3.88,3.88,0,0,1-5.3,2.3L72.8,106.5A3.87,3.87,0,0,0,68,107.85l-1.52,2.26a3.87,3.87,0,0,1-5.72.79l-2.08-1.77a3.88,3.88,0,0,0-5,0l-2.08,1.77a3.88,3.88,0,0,1-5.72-.79l-1.52-2.26a3.87,3.87,0,0,0-4.83-1.35L37,107.64a3.88,3.88,0,0,1-5.3-2.3l-.85-2.59a3.89,3.89,0,0,0-4.29-2.61l-2.69.43a3.88,3.88,0,0,1-4.48-3.64l-.13-2.73a3.87,3.87,0,0,0-3.42-3.66l-2.71-.32A3.87,3.87,0,0,1,9.8,85.5l.61-2.65A3.89,3.89,0,0,0,8.1,78.39l-2.52-1a3.88,3.88,0,0,1-1.94-5.44L5,69.52a3.87,3.87,0,0,0-1-4.91L1.78,62.94a3.87,3.87,0,0,1-.4-5.76l1.91-2a3.87,3.87,0,0,0,.34-5L2,48a3.87,3.87,0,0,1,1.17-5.65L5.54,41a3.86,3.86,0,0,0,1.68-4.72l-1-2.55A3.88,3.88,0,0,1,8.91,28.6l2.64-.68a3.88,3.88,0,0,0,2.9-4.1l-.25-2.71a3.87,3.87,0,0,1,3.94-4.22l2.73.05a3.87,3.87,0,0,0,3.89-3.16l.5-2.68a3.87,3.87,0,0,1,4.93-3l2.61.79a3.87,3.87,0,0,0,4.6-2l1.21-2.45a3.88,3.88,0,0,1,5.56-1.56l2.3,1.47a3.88,3.88,0,0,0,5-.68l1.81-2A3.87,3.87,0,0,1,59,1.64Z" transform="translate(-0.28 -0.34)"/><circle class="cls-2" cx="55.86" cy="55.74" r="49.54"/><path class="cls-3" d="M56.14,6.55a52.06,52.06,0,0,0-5.62.31,49.54,49.54,0,0,1,0,98.44A49.54,49.54,0,1,0,56.14,6.55Z" transform="translate(-0.28 -0.34)"/><path class="cls-1" d="M34.78,51.13h1.61v3.22H29.94V51.13h1.61V47.9H26.87v3.23h1.62v3.22H22V51.13h1.61V41.45H22V38.23h6.45v3.22H26.87v3.23h4.68V41.45H29.94V38.23h6.45v3.22H34.78Z" transform="translate(-0.28 -0.34)"/><path class="cls-1" d="M55.73,51.13v3.22H49.28V51.13H50.8l-.48-1.61h-5l-.48,1.61h1.52v3.22H39.93V51.13h1.56l3.87-12.9h4.93l3.87,12.9Zm-6.38-4.84L47.9,41.45h-.14l-1.45,4.84Z" transform="translate(-0.28 -0.34)"/><path class="cls-1" d="M69,43.87v-.8a1.62,1.62,0,0,0-1.62-1.62H64.11a1.62,1.62,0,0,0-1.62,1.62v6.45a1.62,1.62,0,0,0,1.62,1.61h3.22A1.62,1.62,0,0,0,69,49.52v-.81h3.22v.81a4.8,4.8,0,0,1-.38,1.89A4.85,4.85,0,0,1,69.21,54a4.61,4.61,0,0,1-1.88.38H64.11A4.56,4.56,0,0,1,62.22,54a4.8,4.8,0,0,1-1.53-1,4.88,4.88,0,0,1-1-1.53,4.8,4.8,0,0,1-.38-1.89V43.07a4.78,4.78,0,0,1,.38-1.88,4.86,4.86,0,0,1,1-1.55,4.8,4.8,0,0,1,1.53-1,4.56,4.56,0,0,1,1.89-.38h3.22a4.61,4.61,0,0,1,1.88.38,4.79,4.79,0,0,1,2.58,2.58,4.78,4.78,0,0,1,.38,1.88v.8Z" transform="translate(-0.28 -0.34)"/><path class="cls-1" d="M85.2,45.23l3.53,5.9h1.52v3.22H83.8V51.13H85l-2.14-3.6-2.42,2.35v1.25H82v3.22H75.57V51.13h1.61V41.45H75.57V38.23h6.29v3.22H80.41v3.94l4-3.94h-.83V38.23h6.62v3.22H89.09Z" transform="translate(-0.28 -0.34)"/><path class="cls-1" d="M33.69,65.48a5,5,0,0,1,1,5.4,5,5,0,0,1-1.07,1.59,5.06,5.06,0,0,1-1.59,1.07,4.76,4.76,0,0,1-1.95.4H22V70.71h1.61V61H22V57.81H30.1a4.49,4.49,0,0,1,1.82.37,4.76,4.76,0,0,1,1.49,1,4.82,4.82,0,0,1,1,1.49,4.64,4.64,0,0,1,.08,3.43A4.75,4.75,0,0,1,33.69,65.48ZM26.87,61v2.9H30.1a1.47,1.47,0,0,0,1.45-1.45A1.45,1.45,0,0,0,30.1,61Zm3.23,9.67a1.76,1.76,0,0,0,1.77-1.77,1.76,1.76,0,0,0-1.77-1.78H26.87v3.55Z" transform="translate(-0.28 -0.34)"/><path class="cls-1" d="M52.34,57.81v4.84H49.11V61H45.89v3.22h3.22v3.23H45.89v3.22h3.22V69.1h3.23v4.84H41.05V70.71h1.61V61H41.05V57.81Z" transform="translate(-0.28 -0.34)"/><path class="cls-1" d="M69.76,57.81v4.84H66.53V61H63.31v3.22h3.22v3.23H63.31v3.22h3.22V69.1h3.23v4.84H58.47V70.71h1.61V61H58.47V57.81Z" transform="translate(-0.28 -0.34)"/><path class="cls-1" d="M90.25,70.71v3.23H83.8V70.71h1.31l-1.48-2.58h-2.9v2.58h1.61v3.23H75.89V70.71h1.62V61H75.89V57.81h7.65a5,5,0,0,1,2,.44A5.12,5.12,0,0,1,88.23,61a4.91,4.91,0,0,1,.4,2,4.85,4.85,0,0,1-.53,2.28A5.34,5.34,0,0,1,86.7,67l2.14,3.71Zm-9.52-5.8h2.74a1.94,1.94,0,1,0,0-3.87H80.73Z" transform="translate(-0.28 -0.34)"/><path class="cls-4" d="M88.23,34c-.64-.92-1.3-1.81-2-2.67.71.86,1.37,1.75,2,2.67Z" transform="translate(-0.28 -0.34)"/><path class="cls-4" d="M54.35,95l-.56,0Z" transform="translate(-0.28 -0.34)"/><path class="cls-4" d="M85,29.88c-.84-.93-1.72-1.81-2.64-2.65C83.27,28.07,84.15,29,85,29.88Z" transform="translate(-0.28 -0.34)"/><path class="cls-4" d="M52.52,94.88l-.57,0Z" transform="translate(-0.28 -0.34)"/><path class="cls-4" d="M86.22,80.87c.71-.85,1.37-1.75,2-2.67h0C87.59,79.12,86.93,80,86.22,80.87Z" transform="translate(-0.28 -0.34)"/><path class="cls-4" d="M82.35,84.93q1.38-1.26,2.64-2.64Q83.73,83.67,82.35,84.93Z" transform="translate(-0.28 -0.34)"/><path class="cls-3" d="M69.54,92.69a37,37,0,0,1-3.66,1.14A37,37,0,0,0,69.54,92.69Z" transform="translate(-0.28 -0.34)"/><path class="cls-3" d="M76.35,89.41A35.32,35.32,0,0,1,73,91.21,35.32,35.32,0,0,0,76.35,89.41Z" transform="translate(-0.28 -0.34)"/><path class="cls-3" d="M73,21c1.13.55,2.24,1.15,3.31,1.8C75.28,22.1,74.17,21.5,73,21Z" transform="translate(-0.28 -0.34)"/><path class="cls-3" d="M53.79,95c-.43,0-.85-.06-1.27-.1C52.94,94.92,53.36,95,53.79,95Z" transform="translate(-0.28 -0.34)"/><path class="cls-3" d="M56.14,95.06c-.6,0-1.2,0-1.79,0C54.94,95,55.54,95.06,56.14,95.06Z" transform="translate(-0.28 -0.34)"/><path class="cls-3" d="M65.88,93.83c-1.24.32-2.51.58-3.8.78C63.37,94.41,64.64,94.15,65.88,93.83Z" transform="translate(-0.28 -0.34)"/><path class="cls-3" d="M50.24,94.61c.57.09,1.14.16,1.71.22-.57-.06-1.14-.13-1.71-.22Z" transform="translate(-0.28 -0.34)"/><path class="cls-1" d="M86.22,31.29q-.6-.72-1.23-1.41c-.84-.93-1.72-1.81-2.64-2.65a39.19,39.19,0,0,0-6-4.48C75.28,22.1,74.17,21.5,73,21s-2.3-1-3.5-1.48a37,37,0,0,0-3.66-1.14,36.51,36.51,0,0,0-3.8-.77,38.81,38.81,0,0,0-5.94-.45c-.6,0-1.2,0-1.79,0l-.56,0-1.27.1-.57,0c-.57.07-1.14.13-1.71.22A39,39,0,0,0,24.06,34H88.23C87.59,33,86.93,32.15,86.22,31.29Z" transform="translate(-0.28 -0.34)"/><path class="cls-1" d="M76.43,78.2H24.06A38.92,38.92,0,0,0,50.24,94.61c.57.09,1.14.16,1.71.22l.57,0c.42,0,.84.08,1.27.1l.56,0c.59,0,1.19,0,1.79,0a40.12,40.12,0,0,0,5.94-.45c1.29-.2,2.56-.46,3.8-.78a37,37,0,0,0,3.66-1.14A36,36,0,0,0,73,91.21a35.32,35.32,0,0,0,3.31-1.8,39.19,39.19,0,0,0,6-4.48q1.38-1.26,2.64-2.64c.42-.46.83-.93,1.23-1.42.71-.85,1.37-1.75,2-2.67Z" transform="translate(-0.28 -0.34)"/><path class="cls-5" d="M76.43,78.2A38.92,38.92,0,0,1,50.24,94.61c.57.09,1.14.16,1.71.22l.57,0c.42,0,.84.08,1.27.1l.56,0c.59,0,1.19,0,1.79,0a40.12,40.12,0,0,0,5.94-.45c1.29-.2,2.56-.46,3.8-.78a37,37,0,0,0,3.66-1.14A36,36,0,0,0,73,91.21a35.32,35.32,0,0,0,3.31-1.8,39.19,39.19,0,0,0,6-4.48q1.38-1.26,2.64-2.64c.42-.46.83-.93,1.23-1.42.71-.85,1.37-1.75,2-2.67Z" transform="translate(-0.28 -0.34)"/><path class="cls-5" d="M76.43,34h11.8c-.64-.92-1.3-1.81-2-2.67q-.6-.72-1.23-1.41c-.84-.93-1.72-1.81-2.64-2.65a39.19,39.19,0,0,0-6-4.48C75.28,22.1,74.17,21.5,73,21s-2.3-1-3.5-1.48a37,37,0,0,0-3.66-1.14,36.51,36.51,0,0,0-3.8-.77,38.81,38.81,0,0,0-5.94-.45c-.6,0-1.2,0-1.79,0l-.56,0-1.27.1-.57,0c-.57.07-1.14.13-1.71.22A39,39,0,0,1,76.43,34Z" transform="translate(-0.28 -0.34)"/></svg>