<svg id="Calque_1" data-name="Calque 1" xmlns="http://www.w3.org/2000/svg" xmlns:xlink="http://www.w3.org/1999/xlink" viewBox="0 0 1280.57 537.98"><defs><style>.cls-1,.cls-2{opacity:0.2;}.cls-1,.cls-2,.cls-3{isolation:isolate;}.cls-1{fill:url(#Dégradé_sans_nom);}.cls-2{fill:url(#Dégradé_sans_nom_2);}.cls-3{opacity:0.8;fill:url(#Dégradé_sans_nom_3);}.cls-4{fill:#fff;opacity:0.6;}.cls-5{opacity:0.5;}</style><linearGradient id="Dégradé_sans_nom" x1="0.5" y1="1254.48" x2="1280.5" y2="1254.48" gradientTransform="matrix(-1, 0, 0, 1, 1280.43, -486.02)" gradientUnits="userSpaceOnUse"><stop offset="0" stop-color="#f6d365"/><stop offset="1" stop-color="#fda085"/></linearGradient><linearGradient id="Dégradé_sans_nom_2" x1="0.5" y1="1239.95" x2="1280.5" y2="1239.95" xlink:href="#Dégradé_sans_nom"/><linearGradient id="Dégradé_sans_nom_3" x1="1348.56" y1="-78.98" x2="1348.56" y2="1201.09" gradientTransform="translate(1201.52 -567.93) rotate(90)" xlink:href="#Dégradé_sans_nom"/></defs><title>register-3</title><path class="cls-1" d="M1279.93,1022.92l-1-481c-271.9-57.67-452.87-16-569.58,35-97.82,42.78-274.24,146-425.07,184.84A1235.83,1235.83,0,0,1,.93,800.49q-.5,109.71-1,219.42Z" transform="translate(0.07 -484.94)"/><path class="cls-2" d="M1279.93,1022.92q-.5-265.83-1-531.65c-269-25.23-451.43,29.45-569.58,85.66-130.1,61.89-212.5,140-404.42,207a1358.06,1358.06,0,0,1-304,68q-.5,84-1,168Z" transform="translate(0.07 -484.94)"/><path class="cls-3" d="M1280.5,1022.91l-.22-480.23C1012.74,522.61,828,575.73,708.85,627.92c-132.46,58-229.08,134.39-425.07,184.84A1235.3,1235.3,0,0,1,.43,851.5v171.42Z" transform="translate(0.07 -484.94)"/><circle class="cls-4" cx="295.36" cy="286.75" r="4.7"/><circle class="cls-4" cx="416.95" cy="267.6" r="3.08"/><circle class="cls-4" cx="159.99" cy="346.65" r="3.08"/><circle class="cls-4" cx="579.7" cy="184.11" r="3.08"/><g class="cls-5"><circle class="cls-4" cx="1017.44" cy="136.42" r="4.7"/><circle class="cls-4" cx="545.65" cy="293.15" r="4.7"/><circle class="cls-4" cx="313.16" cy="371.36" r="4.7"/><circle class="cls-4" cx="543.47" cy="362.89" r="4.7"/><circle class="cls-4" cx="1178.51" cy="173.77" r="4.7"/><circle class="cls-4" cx="844.47" cy="209.28" r="3.08"/><circle class="cls-4" cx="670.51" cy="305.03" r="3.08"/><circle class="cls-4" cx="708.74" cy="199.92" r="3.08"/><circle class="cls-4" cx="433.35" cy="375.03" r="3.08"/><circle class="cls-4" cx="24.18" cy="529.26" r="1.16"/><circle class="cls-4" cx="332.58" cy="430.14" r="1.16"/><circle class="cls-4" cx="645.76" cy="251.67" r="1.16"/><circle class="cls-4" cx="77.01" cy="456.05" r="4.7"/><circle class="cls-4" cx="192.69" cy="426.2" r="3.08"/><circle class="cls-4" cx="91.92" cy="481.32" r="1.16"/></g><circle class="cls-4" cx="226.48" cy="314.54" r="1.16"/><circle class="cls-4" cx="492.8" cy="225.77" r="1.16"/><circle class="cls-4" cx="766.7" cy="103.11" r="3.08"/><circle class="cls-4" cx="1226.7" cy="103.11" r="3.08"/></svg>