<?xml version="1.0" encoding="utf-8"?>
<!-- Generator: Adobe Illustrator 22.1.0, SVG Export Plug-In . SVG Version: 6.00 Build 0)  -->
<svg version="1.1" baseProfile="basic" id="Calque_1"
	 xmlns="http://www.w3.org/2000/svg" xmlns:xlink="http://www.w3.org/1999/xlink" x="0px" y="0px" viewBox="0 0 1280 1279"
	 xml:space="preserve">
<style type="text/css">
	.st0{opacity:0.8;fill:url(#SVGID_1_);}
	.st1{opacity:0.2;fill:url(#SVGID_2_);}
	.st2{opacity:0.2;fill:url(#SVGID_3_);}
</style>
<title>register</title>
<linearGradient id="SVGID_1_" gradientUnits="userSpaceOnUse" x1="-133.7065" y1="652.4462" x2="1147.9106" y2="652.4462" gradientTransform="matrix(6.123234e-17 -1 -1 -6.123234e-17 1155.9899 1147.59)">
	<stop  offset="0" style="stop-color:#F6D365"/>
	<stop  offset="1" style="stop-color:#FDA085"/>
</linearGradient>
<path class="st0" d="M787.8,1025.7c-69.6-206.6,83.5-355.5,63-602C842,317.5,798.7,170,640.7,0.2c-187,0-374,0-561,0H0.3
	c64.7,58.5,116.5,114.3,158,167.1c5.2,6.6,10.2,13.2,15.1,19.7c8.5,11.4,16.6,22.7,24.1,33.8c4.3,6.4,8.5,12.7,12.5,18.9
	c2,3.1,4,6.3,5.9,9.4s3.8,6.2,5.7,9.3c1.9,3.1,3.7,6.2,5.5,9.2c2.7,4.6,5.3,9.2,7.8,13.7c1.7,3,3.4,6,5,9c3.3,6,6.4,12,9.3,17.8
	c1.5,2.9,2.9,5.9,4.4,8.8c1.4,2.9,2.8,5.8,4.2,8.8c1.3,2.9,2.7,5.8,4,8.7l1.9,4.3c1.3,2.9,2.5,5.7,3.7,8.5c1.8,4.3,3.6,8.5,5.2,12.7
	c1.1,2.8,2.2,5.6,3.3,8.4c1.1,2.8,2.1,5.5,3.1,8.3s2,5.5,2.9,8.2l1.4,4.1c1.8,5.4,3.6,10.8,5.2,16.1c0.8,2.7,1.6,5.3,2.4,8
	c1.5,5.3,3,10.5,4.3,15.7c1,3.9,1.9,7.7,2.8,11.5c0.6,2.5,1.2,5.1,1.7,7.6l0.8,3.8c0.5,2.5,1,5,1.5,7.5s0.9,5,1.3,7.4
	c0.4,2.5,0.9,4.9,1.2,7.3c0.6,3.6,1.1,7.3,1.6,10.8c0.5,3.6,0.9,7.1,1.4,10.7c0.4,3.5,0.8,7,1.1,10.5s0.6,6.9,0.9,10.3
	c0.2,2.3,0.3,4.5,0.4,6.8c0.7,12.3,0.9,24.3,0.7,35.8c-0.3,16.6-1.5,33-3.4,49.3c-0.4,3.3-0.8,6.5-1.2,9.8c-0.4,3.2-0.9,6.5-1.4,9.7
	c-0.5,3.2-1,6.5-1.5,9.7c-1.1,6.4-2.2,12.9-3.5,19.3c-1.5,8-3.2,16-5,23.9c-2.1,9.5-4.4,19-6.8,28.5c-1.2,4.7-2.4,9.4-3.7,14.2
	l-2.5,9.4c-0.8,3.1-1.7,6.3-2.6,9.4l-2.6,9.4l-2.7,9.3l-2.7,9.3l-4,14l-4.1,13.9l-2.7,9.3l-2.7,9.2l-2.6,9.2
	c-0.9,3.1-1.8,6.2-2.6,9.2l-2.6,9.2l-2.5,9.2c-1.2,4.6-2.5,9.2-3.6,13.8c-1.2,4.6-2.3,9.2-3.5,13.8c-0.7,3.1-1.5,6.1-2.2,9.2
	c-0.7,3.1-1.4,6.1-2.1,9.2c-2.4,10.7-4.6,21.4-6.5,32.1c-0.5,3.1-1.1,6.1-1.6,9.2c-2.2,13.8-3.9,27.5-5.1,41.3
	c-0.5,6.1-0.8,12.3-1.1,18.4c-0.1,3.1-0.2,6.1-0.2,9.2c0,3.1,0,6.1,0,9.2c0.1,17.1,1.5,34.1,4.1,50.9c0.5,3.1,1,6.2,1.6,9.3
	c5.1,27.6,13.7,54.5,25.6,79.9c4.2,9.1,8.7,17.7,13.4,25.9c2.8,4.9,5.7,9.7,8.6,14.3c1.9,3.1,3.9,6.1,5.9,9
	c3.9,5.9,7.9,11.5,12,16.8c10.9,14.4,22.7,28,35.4,40.8c1.9,1.9,3.7,3.7,5.5,5.4l2.7,2.6c0.8,0.8,1.7,1.6,2.5,2.5c1,1,2,2,2.9,3
	c221.7,0,443.4,0.1,665,0.1c-3.9-4-8.2-8.2-12.8-12.3c-4.4-4-8.7-7.6-12.9-10.8C906.9,1207.5,824.3,1133.9,787.8,1025.7z"/>
<linearGradient id="SVGID_2_" gradientUnits="userSpaceOnUse" x1="-131.6166" y1="984.9117" x2="1148.4902" y2="984.9117" gradientTransform="matrix(6.123234e-17 -1 -1 -6.123234e-17 1155.9899 1147.59)">
	<stop  offset="0" style="stop-color:#F6D365"/>
	<stop  offset="1" style="stop-color:#FDA085"/>
</linearGradient>
<path class="st1" d="M261.1,561.7c-11.5,189.5-130.9,364.9-54,600c17.3,52.8,39.4,93,54.2,117.4c26.9,0,53.7,0.1,80.6,0.1
	c-0.8-1.3-1.8-2.7-3.2-4.2c-0.9-1-1.8-1.8-2.6-2.5l-2.7-2.6c-1.8-1.7-3.6-3.5-5.5-5.4c-12.7-12.8-24.6-26.4-35.4-40.8
	c-4-5.3-8-10.9-12-16.8c-2-2.9-4-5.9-5.9-9c-2.9-4.6-5.8-9.4-8.6-14.3c-4.7-8.2-9.1-16.9-13.4-26c-11.9-25.5-20.5-52.3-25.6-79.9
	c-0.6-3.1-1.1-6.2-1.6-9.3c-2.6-16.9-3.9-33.9-4.1-50.9c0-3.1,0-6.1,0-9.2s0.1-6.1,0.2-9.2c0.2-6.1,0.6-12.3,1.1-18.4
	c1.1-13.8,2.8-27.5,5.1-41.3c0.5-3.1,1-6.1,1.6-9.2c1.9-10.7,4.1-21.4,6.5-32.1c0.7-3.1,1.4-6.1,2.1-9.2s1.5-6.1,2.2-9.2
	c1.1-4.6,2.3-9.2,3.5-13.8c1.2-4.6,2.4-9.2,3.6-13.8l2.5-9.2l2.6-9.2c0.9-3.1,1.7-6.1,2.6-9.2l2.6-9.2l2.7-9.2l2.7-9.3l4.1-13.9
	l4-14l2.7-9.3l2.7-9.3l2.6-9.4c0.9-3.1,1.7-6.2,2.6-9.4l2.5-9.4c1.2-4.7,2.5-9.4,3.7-14.2c2.4-9.5,4.7-19,6.8-28.5
	c1.8-7.9,3.4-15.9,5-23.9c1.2-6.4,2.4-12.8,3.5-19.3c0.5-3.2,1-6.4,1.5-9.7c0.5-3.2,0.9-6.5,1.4-9.7c0.4-3.3,0.8-6.5,1.2-9.8
	c1.9-16.3,3.1-32.7,3.4-49.3c0.2-11.5,0-23.5-0.7-35.8c-0.1-2.2-0.3-4.5-0.4-6.8c-0.2-3.4-0.5-6.8-0.9-10.3s-0.7-7-1.1-10.5
	s-0.9-7.1-1.4-10.7s-1-7.2-1.6-10.8c-0.4-2.4-0.8-4.9-1.2-7.3s-0.9-4.9-1.4-7.4s-1-5-1.5-7.5l-0.8-3.8c-0.5-2.5-1.1-5.1-1.7-7.6
	c-0.9-3.8-1.8-7.7-2.8-11.5c-1.3-5.2-2.8-10.4-4.3-15.7c-0.8-2.7-1.6-5.3-2.4-8c-1.6-5.3-3.4-10.7-5.2-16.1l-1.4-4.1
	c-1-2.7-1.9-5.5-2.9-8.2s-2-5.5-3.1-8.3s-2.1-5.6-3.3-8.4c-1.7-4.2-3.4-8.4-5.2-12.7c-1.2-2.8-2.4-5.7-3.7-8.5l-1.9-4.3
	c-1.3-2.9-2.7-5.8-4-8.7c-1.3-2.9-2.7-5.8-4.2-8.8c-1.4-2.9-2.9-5.9-4.4-8.8c-3-5.9-6.1-11.8-9.3-17.8c-1.6-3-3.3-6-5-9
	c-2.5-4.5-5.1-9.1-7.8-13.7c-1.8-3.1-3.6-6.1-5.5-9.2c-1.9-3.1-3.8-6.2-5.7-9.3c-1.9-3.1-3.9-6.2-5.9-9.4c-4-6.3-8.2-12.6-12.5-18.9
	c-7.6-11.1-15.6-22.4-24.1-33.8c-4.9-6.5-9.9-13.1-15.1-19.7C116.8,113.4,64.9,57.6,0.2-0.9h0C229.7,243.1,269,432.5,261.1,561.7z"
	/>
<linearGradient id="SVGID_3_" gradientUnits="userSpaceOnUse" x1="-134.8822" y1="624.6057" x2="1147.9111" y2="624.6057" gradientTransform="matrix(6.123234e-17 -1 -1 -6.123234e-17 1155.9899 1147.59)">
	<stop  offset="0" style="stop-color:#F6D365"/>
	<stop  offset="1" style="stop-color:#FDA085"/>
</linearGradient>
<path class="st2" d="M639.3,0.2c160.3,169.9,204.2,317.7,213.3,424c21,246.4-133,395.7-63.1,602.8
	c36.6,108.4,119.4,182.1,193.7,230.5c-58.7-50.6-128-128-158.3-235.5c-63.7-226.6,97.5-375.7,73.2-621.9
	c-9.7-97.7-51.5-238.3-208-400c-191.7,0-383.4,0-575,0H79.7C266.2,0.2,452.7,0.2,639.3,0.2z"/>
</svg>
