<?xml version="1.0" encoding="utf-8"?>
<!-- Generator: Adobe Illustrator 22.1.0, SVG Export Plug-In . SVG Version: 6.00 Build 0)  -->
<svg version="1.1" baseProfile="basic" id="Calque_1"
	 xmlns="http://www.w3.org/2000/svg" xmlns:xlink="http://www.w3.org/1999/xlink" x="0px" y="0px" viewBox="0 0 433.1 482.4"
	 xml:space="preserve">
<style type="text/css">
	.st0{opacity:0.2;fill:url(#SVGID_1_);}
	.st1{opacity:0.2;fill:url(#SVGID_2_);}
	.st2{opacity:0.8;fill:url(#SVGID_3_);}
	.st3{opacity:0.6;fill:#FFFFFF;}
	.st4{opacity:0.5;}
</style>
<linearGradient id="SVGID_1_" gradientUnits="userSpaceOnUse" x1="847.1185" y1="383.0905" x2="1280.4662" y2="383.0905" gradientTransform="matrix(-1 0 0 1 1280.5 -141.97)">
	<stop  offset="0" style="stop-color:#F6D365"/>
	<stop  offset="1" style="stop-color:#FDA085"/>
</linearGradient>
<path class="st0" d="M433.4,182.1V2.2c-91.3-8.6-153.2,9.9-193.3,29c-43.9,20.9-71.9,47.4-136.9,70.1c-33.3,11.6-67.8,19.3-102.9,23
	c-0.1,19-0.2,37.9-0.3,56.9c0.1,47,0.1,254.1,0.2,301.1l432.7,0L433.4,182.1z"/>
<linearGradient id="SVGID_2_" gradientUnits="userSpaceOnUse" x1="847.1185" y1="388.4694" x2="1280.5" y2="388.4694" gradientTransform="matrix(-1 0 0 1 1280.5 -141.97)">
	<stop  offset="0" style="stop-color:#F6D365"/>
	<stop  offset="1" style="stop-color:#FDA085"/>
</linearGradient>
<path class="st1" d="M433.4,182.1V19.4c-90.6-18.1-152.7-4.6-193.3,11.7c-45.4,18.3-75.9,45.1-143.9,62.5
	c-31.3,8.1-63.5,12.5-95.9,13.1C0.2,131.5,0.1,156.3,0,181l0.1,301.2l433.2,0L433.4,182.1z"/>
<linearGradient id="SVGID_3_" gradientUnits="userSpaceOnUse" x1="508.2447" y1="734.2086" x2="508.2447" y2="1167.4208" gradientTransform="matrix(0 1 -1 0 1167.59 -257.88)">
	<stop  offset="0" style="stop-color:#F6D365"/>
	<stop  offset="1" style="stop-color:#FDA085"/>
</linearGradient>
<path class="st2" d="M433.4,182.1V19.7c-90.6-6.9-153.1,11-193.5,28.7C195.1,68,162.4,93.9,96.1,110.9C64.7,119,32.5,123.4,0.2,124
	v58.1c0,46.7,0,253.4,0,300.1l432.5,0.3C432.9,435.7,433.2,228.9,433.4,182.1z"/>
<title>register-mobile-2</title>
<circle class="st3" cx="107" cy="95.6" r="1.6"/>
<circle class="st3" cx="148.1" cy="89.1" r="1"/>
<circle class="st3" cx="61.2" cy="115.8" r="1"/>
<circle class="st3" cx="203.2" cy="60.8" r="1"/>
<g class="st4">
	<circle class="st3" cx="351.4" cy="44.7" r="1.6"/>
	<circle class="st3" cx="191.7" cy="97.8" r="1.6"/>
	<circle class="st3" cx="113" cy="124.2" r="1.6"/>
	<circle class="st3" cx="191" cy="121.3" r="1.6"/>
	<circle class="st3" cx="405.9" cy="57.3" r="1.6"/>
	<circle class="st3" cx="292.8" cy="69.4" r="1"/>
	<circle class="st3" cx="234" cy="101.7" r="1"/>
	<circle class="st3" cx="246.9" cy="66.2" r="1"/>
	<circle class="st3" cx="153.7" cy="125.4" r="1"/>
	<circle class="st3" cx="15.2" cy="177.7" r="0.4"/>
	<circle class="st3" cx="119.6" cy="144.1" r="0.4"/>
	<circle class="st3" cx="225.6" cy="83.7" r="0.4"/>
	<circle class="st3" cx="33.1" cy="152.9" r="1.6"/>
	<circle class="st3" cx="72.3" cy="142.8" r="1"/>
	<circle class="st3" cx="38.1" cy="161.4" r="0.4"/>
</g>
<circle class="st3" cx="325.3" cy="71" r="2.3"/>
</svg>
