<?xml version="1.0" encoding="utf-8"?>
<!-- Generator: Adobe Illustrator 22.1.0, SVG Export Plug-In . SVG Version: 6.00 Build 0)  -->
<svg version="1.1" baseProfile="basic" id="Calque_1"
	 xmlns="http://www.w3.org/2000/svg" xmlns:xlink="http://www.w3.org/1999/xlink" x="0px" y="0px" viewBox="0 0 432 506.6"
	 xml:space="preserve">
<style type="text/css">
	.st0{opacity:0.2;fill:url(#SVGID_1_);}
	.st1{opacity:0.2;fill:url(#SVGID_2_);}
	.st2{opacity:0.8;fill:url(#SVGID_3_);}
	.st3{opacity:0.6;fill:#FFFFFF;}
	.st4{opacity:0.5;}
</style>
<linearGradient id="SVGID_1_" gradientUnits="userSpaceOnUse" x1="-957.3527" y1="1166.6322" x2="-524.0051" y2="1166.6322" gradientTransform="matrix(1 0 0 -1 956.8815 1408.5056)">
	<stop  offset="0" style="stop-color:#F6D365"/>
	<stop  offset="1" style="stop-color:#FDA085"/>
</linearGradient>
<path class="st0" d="M-0.5,300.9v179.9c91.3,8.6,153.2-9.9,193.3-29c43.9-20.9,71.9-47.4,136.9-70.1c33.3-11.6,67.8-19.3,102.9-23
	c0.1-19,0.2-37.9,0.3-56.9c-0.1-47-0.1-254.1-0.2-301.1L0,0.8L-0.5,300.9z"/>
<linearGradient id="SVGID_2_" gradientUnits="userSpaceOnUse" x1="-957.3527" y1="1172.011" x2="-523.9713" y2="1172.011" gradientTransform="matrix(1 0 0 -1 956.8815 1408.5056)">
	<stop  offset="0" style="stop-color:#F6D365"/>
	<stop  offset="1" style="stop-color:#FDA085"/>
</linearGradient>
<path class="st1" d="M-0.5,300.9v162.7c90.6,18.1,152.7,4.6,193.3-11.7c45.4-18.3,75.9-45.1,143.9-62.5
	c31.3-8.1,63.5-12.5,95.9-13.1c0.1-24.7,0.2-49.5,0.3-74.3L432.8,0.8l-433.2,0L-0.5,300.9z"/>
<linearGradient id="SVGID_3_" gradientUnits="userSpaceOnUse" x1="1291.7863" y1="-1070.2627" x2="1291.7863" y2="-637.0505" gradientTransform="matrix(0 -1 1 0 1069.7915 1524.4156)">
	<stop  offset="0" style="stop-color:#F6D365"/>
	<stop  offset="1" style="stop-color:#FDA085"/>
</linearGradient>
<path class="st2" d="M-0.5,300.9v162.4c90.6,6.9,153.1-11,193.5-28.7c44.8-19.6,77.5-45.5,143.9-62.5c31.3-8.1,63.5-12.5,95.9-13.1
	v-58.1c0-46.7,0-253.4,0-300.1L0.2,0.5C0,47.3-0.2,254.1-0.5,300.9z"/>
<title>register-mobile-1</title>
<circle class="st3" cx="61.9" cy="345.4" r="2.4"/>
<circle class="st3" cx="389.9" cy="281.2" r="1.5"/>
<circle class="st3" cx="157.9" cy="303.5" r="1.5"/>
<circle class="st3" cx="253.2" cy="311.3" r="1.5"/>
<circle class="st3" cx="320.1" cy="317.3" r="1.5"/>
<circle class="st3" cx="325.9" cy="387.4" r="1.6"/>
<circle class="st3" cx="284.8" cy="393.9" r="1"/>
<circle class="st3" cx="371.7" cy="367.2" r="1"/>
<circle class="st3" cx="229.7" cy="422.2" r="1"/>
<g class="st4">
	<circle class="st3" cx="81.5" cy="438.3" r="1.6"/>
	<circle class="st3" cx="241.2" cy="385.2" r="1.6"/>
	<circle class="st3" cx="319.9" cy="358.8" r="1.6"/>
	<circle class="st3" cx="242" cy="361.7" r="1.6"/>
	<circle class="st3" cx="27" cy="425.7" r="1.6"/>
	<circle class="st3" cx="140.1" cy="413.6" r="1"/>
	<circle class="st3" cx="198.9" cy="381.2" r="1"/>
	<circle class="st3" cx="186" cy="416.8" r="1"/>
	<circle class="st3" cx="279.2" cy="357.6" r="1"/>
	<circle class="st3" cx="417.7" cy="305.3" r="0.4"/>
	<circle class="st3" cx="313.3" cy="338.9" r="0.4"/>
	<circle class="st3" cx="207.3" cy="399.3" r="0.4"/>
	<circle class="st3" cx="399.8" cy="330.1" r="1.6"/>
	<circle class="st3" cx="360.7" cy="340.2" r="1"/>
	<circle class="st3" cx="394.8" cy="321.6" r="0.4"/>
</g>
<circle class="st3" cx="107.6" cy="412" r="2.3"/>
</svg>
