<svg height="475pt" viewBox="-1 0 475 475.12794" width="475pt" xmlns="http://www.w3.org/2000/svg"><path d="m238.953125 448.261719 106.816406 26.398437c8.578125 2.121094 17.246094-3.117187 19.367188-11.695312l40.277343-163.046875c10.148438-41.070313 12.367188-83.699219 6.539063-125.601563l-.167969-1.230468c-5.832031-41.875-3.617187-84.476563 6.519532-125.519532l7.765624 1.917969 5.761719-23.304687c1.054688-4.285157-1.5625-8.617188-5.847656-9.679688l-62.136719-15.335938c-4.289062-1.058593-8.628906 1.558594-9.6875 5.847657l-5.753906 23.296875 7.769531 1.921875c-10.140625 41.042969-28.019531 79.777343-52.679687 114.117187l-.71875 1.019532c-24.664063 34.355468-42.546875 73.101562-52.6875 114.160156l-20.425782 82.542968zm0 0" fill="#a3740c"/><path d="m410.039062 279.8125-154.632812-38.3125c-3.199219 9.226562-25.742188 102.570312-25.742188 102.570312l4.800782 54.398438 2.398437 12.96875 133.128907 32.886719s39.015624-155.285157 40.046874-164.511719zm0 0" fill="#f4c734"/><path d="m348.984375 56.84375 64.511719 14.21875c1.34375-7.863281 2.886718-15.714844 4.800781-23.480469l-62.121094-15.351562c-2.054687 8.320312-4.511719 16.511719-7.191406 24.613281zm0 0" fill="#855e0a"/><path d="m312.0625 303.40625c-23.5625 0-42.664062 19.101562-42.664062 42.664062s19.101562 42.664063 42.664062 42.664063 42.664062-19.101563 42.664062-42.664063c-.023437-23.550781-19.109374-42.636718-42.664062-42.664062zm0 71.109375c-15.710938 0-28.445312-12.734375-28.445312-28.445313 0-15.710937 12.734374-28.449218 28.445312-28.449218s28.449219 12.738281 28.449219 28.449218c-.015625 15.703126-12.742188 28.429688-28.449219 28.445313zm0 0" fill="#f49e34"/><path d="m312.0625 282.070312c-35.34375 0-64 28.652344-64 64 0 35.34375 28.65625 64 64 64 35.347656 0 64-28.65625 64-64-.039062-35.332031-28.667969-63.960937-64-64zm0 106.664063c-23.5625 0-42.664062-19.101563-42.664062-42.664063s19.101562-42.664062 42.664062-42.664062 42.664062 19.101562 42.664062 42.664062c-.023437 23.550782-19.109374 42.636719-42.664062 42.664063zm0 0" fill="#f9f2cc"/><path d="m169.664062 149.703125-.664062-1.058594c-22.554688-35.753906-38.078125-75.488281-45.734375-117.0625l7.863281-1.449219-4.351562-23.597656c-.808594-4.339844-4.980469-7.203125-9.320313-6.402344l-62.929687 11.585938c-4.339844.808594-7.203125 4.976562-6.398438 9.320312l4.351563 23.597657 7.863281-1.445313c7.667969 41.574219 7.332031 84.230469-.992188 125.679688l-.261718 1.199218c-8.324219 41.46875-8.65625 84.140626-.984375 125.734376l30.445312 165.167968c1.621094 8.679688 9.960938 14.40625 18.640625 12.800782l125.878906-23.199219c8.679688-1.617188 14.40625-9.960938 12.800782-18.640625l-30.421875-165.121094c-7.675781-41.59375-23.214844-81.339844-45.785157-117.109375zm0 0" fill="#a3740c"/><g fill="#f4c734"><path d="m84.679688 441.191406 157.550781-29.121094s-26.511719-150.296874-30.773438-164.730468l-156.617187 28.984375c.945312 12.867187 29.839844 164.867187 29.839844 164.867187zm0 0"/><path d="m192.058594 122.074219c3.535156-2.652344 8.550781-1.9375 11.199218 1.597656l14.40625 19.195313c2.652344 3.535156 1.933594 8.550781-1.597656 11.203124-3.535156 2.652344-8.550781 1.933594-11.203125-1.597656l-14.402343-19.199218c-2.652344-3.535157-1.9375-8.546876 1.597656-11.199219zm0 0"/><path d="m246.464844 126.867188 14.40625-19.199219c2.652344-3.53125 7.664062-4.25 11.199218-1.597657 3.535157 2.652344 4.25 7.667969 1.597657 11.203126l-14.402344 19.195312c-2.652344 3.535156-7.667969 4.25-11.203125 1.597656-3.53125-2.652344-4.246094-7.667968-1.597656-11.199218zm0 0"/><path d="m232.0625 82.070312c4.417969 0 8 3.582032 8 8 0 4.417969-3.582031 8-8 8s-8-3.582031-8-8c0-4.417968 3.582031-8 8-8zm0 0"/><path d="m24.0625 298.070312c4.417969 0 8 3.582032 8 8 0 4.417969-3.582031 8-8 8s-8-3.582031-8-8c0-4.417968 3.582031-8 8-8zm0 0"/><path d="m8.0625 458.070312c4.417969 0 8 3.582032 8 8 0 4.417969-3.582031 8-8 8s-8-3.582031-8-8c0-4.417968 3.582031-8 8-8zm0 0"/><path d="m32.0625 378.070312c4.417969 0 8 3.582032 8 8 0 4.417969-3.582031 8-8 8s-8-3.582031-8-8c0-4.417968 3.582031-8 8-8zm0 0"/><path d="m464.0625 354.070312c4.417969 0 8 3.582032 8 8 0 4.417969-3.582031 8-8 8s-8-3.582031-8-8c0-4.417968 3.582031-8 8-8zm0 0"/><path d="m424.0625 410.070312c4.417969 0 8 3.582032 8 8 0 4.417969-3.582031 8-8 8s-8-3.582031-8-8c0-4.417968 3.582031-8 8-8zm0 0"/><path d="m448.0625 242.070312c4.417969 0 8 3.582032 8 8 0 4.417969-3.582031 8-8 8s-8-3.582031-8-8c0-4.417968 3.582031-8 8-8zm0 0"/></g><path d="m60.328125 43.191406c1.464844 7.902344 2.535156 15.847656 3.414063 23.8125l64.265624-14.160156c-1.785156-7.03125-3.414062-14.109375-4.734374-21.261719zm0 0" fill="#855e0a"/><path d="m152.0625 303.40625c-23.5625 0-42.664062 19.101562-42.664062 42.664062s19.101562 42.664063 42.664062 42.664063 42.664062-19.101563 42.664062-42.664063c-.023437-23.550781-19.109374-42.636718-42.664062-42.664062zm0 71.109375c-15.710938 0-28.445312-12.734375-28.445312-28.445313 0-15.710937 12.734374-28.449218 28.445312-28.449218s28.449219 12.738281 28.449219 28.449218c-.015625 15.703126-12.742188 28.429688-28.449219 28.445313zm0 0" fill="#f49e34"/><path d="m152.0625 282.070312c-35.34375 0-64 28.652344-64 64 0 35.34375 28.65625 64 64 64 35.347656 0 64-28.65625 64-64-.039062-35.332031-28.667969-63.960937-64-64zm0 106.664063c-23.5625 0-42.664062-19.101563-42.664062-42.664063s19.101562-42.664062 42.664062-42.664062 42.664062 19.101562 42.664062 42.664062c-.023437 23.550782-19.109374 42.636719-42.664062 42.664063zm0 0" fill="#f9f2cc"/></svg>